<mxfile modified="2022-08-15T05:43:16.202Z" host="app.diagrams.net" agent="5.0 (Windows NT 10.0; Win64; x64) AppleWebKit/537.36 (KHTML, like Gecko) Chrome/104.0.0.0 Safari/537.36" etag="JWexhAkM8AC1Q4dkcUrD" version="20.2.3" type="github">
  <diagram id="Ht1M8jgEwFfnCIfOTk4-" name="Page-1">
    <mxGraphModel dx="1292" dy="549" grid="1" gridSize="10" guides="1" tooltips="1" connect="1" arrows="1" fold="1" page="1" pageScale="1" pageWidth="1169" pageHeight="827" math="0" shadow="0">
      <root>
        <mxCell id="0" />
        <mxCell id="1" parent="0" />
        <mxCell id="TXq7R9aLI3J5eNGoXP3h-1" value="" style="outlineConnect=0;dashed=0;verticalLabelPosition=bottom;verticalAlign=top;align=center;html=1;shape=mxgraph.aws3.s3;fillColor=#E05243;gradientColor=none;" vertex="1" parent="1">
          <mxGeometry x="156" y="367" width="60" height="73" as="geometry" />
        </mxCell>
        <mxCell id="TXq7R9aLI3J5eNGoXP3h-2" value="c&lt;span style=&quot;color: rgba(0, 0, 0, 0); font-family: monospace; font-size: 0px; text-align: start;&quot;&gt;%3CmxGraphModel%3E%3Croot%3E%3CmxCell%20id%3D%220%22%2F%3E%3CmxCell%20id%3D%221%22%20parent%3D%220%22%2F%3E%3CmxCell%20id%3D%222%22%20value%3D%22crawl%22%20style%3D%22edgeLabel%3Bresizable%3D0%3Bhtml%3D1%3Balign%3Dcenter%3BverticalAlign%3Dmiddle%3B%22%20connectable%3D%220%22%20vertex%3D%221%22%20parent%3D%221%22%3E%3CmxGeometry%20x%3D%22792.5860415914601%22%20y%3D%22335.3301671665206%22%20as%3D%22geometry%22%2F%3E%3C%2FmxCell%3E%3C%2Froot%3E%3C%2FmxGraphModel%3E&lt;/span&gt;" style="sketch=0;points=[[0,0,0],[0.25,0,0],[0.5,0,0],[0.75,0,0],[1,0,0],[0,1,0],[0.25,1,0],[0.5,1,0],[0.75,1,0],[1,1,0],[0,0.25,0],[0,0.5,0],[0,0.75,0],[1,0.25,0],[1,0.5,0],[1,0.75,0]];outlineConnect=0;fontColor=#232F3E;gradientColor=#F78E04;gradientDirection=north;fillColor=#D05C17;strokeColor=#ffffff;dashed=0;verticalLabelPosition=bottom;verticalAlign=top;align=center;html=1;fontSize=12;fontStyle=0;aspect=fixed;shape=mxgraph.aws4.resourceIcon;resIcon=mxgraph.aws4.lambda;" vertex="1" parent="1">
          <mxGeometry x="442" y="511.79" width="63" height="63" as="geometry" />
        </mxCell>
        <mxCell id="TXq7R9aLI3J5eNGoXP3h-4" value="" style="outlineConnect=0;dashed=0;verticalLabelPosition=bottom;verticalAlign=top;align=center;html=1;shape=mxgraph.aws3.cloudwatch;fillColor=#759C3E;gradientColor=none;" vertex="1" parent="1">
          <mxGeometry x="453" y="634" width="50" height="53" as="geometry" />
        </mxCell>
        <mxCell id="TXq7R9aLI3J5eNGoXP3h-7" value="" style="endArrow=classic;html=1;rounded=0;" edge="1" parent="1">
          <mxGeometry relative="1" as="geometry">
            <mxPoint x="505" y="543.21" as="sourcePoint" />
            <mxPoint x="641" y="543" as="targetPoint" />
          </mxGeometry>
        </mxCell>
        <mxCell id="TXq7R9aLI3J5eNGoXP3h-8" value="CloudWatch Logs" style="edgeLabel;resizable=0;html=1;align=left;verticalAlign=bottom;" connectable="0" vertex="1" parent="TXq7R9aLI3J5eNGoXP3h-7">
          <mxGeometry x="-1" relative="1" as="geometry">
            <mxPoint x="-65" y="161" as="offset" />
          </mxGeometry>
        </mxCell>
        <mxCell id="TXq7R9aLI3J5eNGoXP3h-9" value="RedShift Tables" style="edgeLabel;resizable=0;html=1;align=right;verticalAlign=bottom;" connectable="0" vertex="1" parent="TXq7R9aLI3J5eNGoXP3h-7">
          <mxGeometry x="1" relative="1" as="geometry">
            <mxPoint x="319" y="-143" as="offset" />
          </mxGeometry>
        </mxCell>
        <mxCell id="TXq7R9aLI3J5eNGoXP3h-11" value="" style="endArrow=classic;html=1;rounded=0;entryX=0.35;entryY=0;entryDx=0;entryDy=0;entryPerimeter=0;exitX=0.444;exitY=0.987;exitDx=0;exitDy=0;exitPerimeter=0;" edge="1" parent="1" target="TXq7R9aLI3J5eNGoXP3h-4" source="TXq7R9aLI3J5eNGoXP3h-2">
          <mxGeometry relative="1" as="geometry">
            <mxPoint x="470.00299999999993" y="579.767" as="sourcePoint" />
            <mxPoint x="570" y="599.79" as="targetPoint" />
          </mxGeometry>
        </mxCell>
        <mxCell id="TXq7R9aLI3J5eNGoXP3h-12" value="Logs" style="edgeLabel;resizable=0;html=1;align=center;verticalAlign=middle;" connectable="0" vertex="1" parent="TXq7R9aLI3J5eNGoXP3h-11">
          <mxGeometry relative="1" as="geometry" />
        </mxCell>
        <mxCell id="TXq7R9aLI3J5eNGoXP3h-13" value="LambdaFunction" style="edgeLabel;resizable=0;html=1;align=left;verticalAlign=bottom;" connectable="0" vertex="1" parent="1">
          <mxGeometry x="429.59" y="511.78999999999996" as="geometry" />
        </mxCell>
        <mxCell id="TXq7R9aLI3J5eNGoXP3h-16" value="write" style="text;html=1;align=center;verticalAlign=middle;resizable=0;points=[];autosize=1;strokeColor=none;fillColor=none;fontSize=9;" vertex="1" parent="1">
          <mxGeometry x="550" y="519.79" width="40" height="20" as="geometry" />
        </mxCell>
        <mxCell id="TXq7R9aLI3J5eNGoXP3h-17" style="edgeStyle=orthogonalEdgeStyle;rounded=0;orthogonalLoop=1;jettySize=auto;html=1;exitX=1;exitY=0.5;exitDx=0;exitDy=0;fontSize=9;entryX=0.5;entryY=0;entryDx=0;entryDy=0;entryPerimeter=0;" edge="1" parent="1" source="TXq7R9aLI3J5eNGoXP3h-18">
          <mxGeometry relative="1" as="geometry">
            <mxPoint x="185" y="367" as="targetPoint" />
          </mxGeometry>
        </mxCell>
        <mxCell id="TXq7R9aLI3J5eNGoXP3h-18" value="" style="shape=image;html=1;verticalAlign=top;verticalLabelPosition=bottom;labelBackgroundColor=#ffffff;imageAspect=0;aspect=fixed;image=https://cdn3.iconfinder.com/data/icons/cad-database-presentation-spreadsheet-vector-fil-2/512/19-128.png;fontSize=9;" vertex="1" parent="1">
          <mxGeometry x="116" y="282" width="33" height="33" as="geometry" />
        </mxCell>
        <mxCell id="TXq7R9aLI3J5eNGoXP3h-19" value="put object API" style="text;html=1;align=center;verticalAlign=middle;resizable=0;points=[];autosize=1;strokeColor=none;fillColor=none;fontSize=9;" vertex="1" parent="1">
          <mxGeometry x="100" y="331.5" width="80" height="20" as="geometry" />
        </mxCell>
        <mxCell id="TXq7R9aLI3J5eNGoXP3h-26" value="" style="sketch=0;points=[[0,0,0],[0.25,0,0],[0.5,0,0],[0.75,0,0],[1,0,0],[0,1,0],[0.25,1,0],[0.5,1,0],[0.75,1,0],[1,1,0],[0,0.25,0],[0,0.5,0],[0,0.75,0],[1,0.25,0],[1,0.5,0],[1,0.75,0]];outlineConnect=0;fontColor=#232F3E;gradientColor=#945DF2;gradientDirection=north;fillColor=#5A30B5;strokeColor=#ffffff;dashed=0;verticalLabelPosition=bottom;verticalAlign=top;align=center;html=1;fontSize=12;fontStyle=0;aspect=fixed;shape=mxgraph.aws4.resourceIcon;resIcon=mxgraph.aws4.redshift;" vertex="1" parent="1">
          <mxGeometry x="880" y="292" width="88.5" height="88.5" as="geometry" />
        </mxCell>
        <mxCell id="TXq7R9aLI3J5eNGoXP3h-27" value="" style="edgeStyle=elbowEdgeStyle;elbow=horizontal;endArrow=classic;html=1;rounded=0;startArrow=none;" edge="1" parent="1" source="TXq7R9aLI3J5eNGoXP3h-36">
          <mxGeometry width="50" height="50" relative="1" as="geometry">
            <mxPoint x="216" y="400" as="sourcePoint" />
            <mxPoint x="440" y="330" as="targetPoint" />
            <Array as="points">
              <mxPoint x="241" y="330" />
            </Array>
          </mxGeometry>
        </mxCell>
        <mxCell id="TXq7R9aLI3J5eNGoXP3h-28" value="" style="edgeStyle=elbowEdgeStyle;elbow=horizontal;endArrow=classic;html=1;rounded=0;" edge="1" parent="1">
          <mxGeometry width="50" height="50" relative="1" as="geometry">
            <mxPoint x="220" y="400" as="sourcePoint" />
            <mxPoint x="441" y="541.79" as="targetPoint" />
            <Array as="points">
              <mxPoint x="241" y="521.79" />
            </Array>
          </mxGeometry>
        </mxCell>
        <mxCell id="TXq7R9aLI3J5eNGoXP3h-30" value="event- trigger (path:&amp;nbsp;s3://bha-uk-data/product_transactions)&amp;nbsp;" style="text;html=1;align=center;verticalAlign=middle;resizable=0;points=[];autosize=1;strokeColor=none;fillColor=none;fontSize=9;" vertex="1" parent="1">
          <mxGeometry x="193" y="311.5" width="260" height="20" as="geometry" />
        </mxCell>
        <mxCell id="TXq7R9aLI3J5eNGoXP3h-34" value="" style="sketch=0;points=[[0,0,0],[0.25,0,0],[0.5,0,0],[0.75,0,0],[1,0,0],[0,1,0],[0.25,1,0],[0.5,1,0],[0.75,1,0],[1,1,0],[0,0.25,0],[0,0.5,0],[0,0.75,0],[1,0.25,0],[1,0.5,0],[1,0.75,0]];outlineConnect=0;fontColor=#232F3E;gradientColor=#4D72F3;gradientDirection=north;fillColor=#3334B9;strokeColor=#ffffff;dashed=0;verticalLabelPosition=bottom;verticalAlign=top;align=center;html=1;fontSize=12;fontStyle=0;aspect=fixed;shape=mxgraph.aws4.resourceIcon;resIcon=mxgraph.aws4.dynamodb;" vertex="1" parent="1">
          <mxGeometry x="642" y="499" width="88.18" height="88.18" as="geometry" />
        </mxCell>
        <mxCell id="TXq7R9aLI3J5eNGoXP3h-35" value="DynamoDB Table" style="edgeLabel;resizable=0;html=1;align=left;verticalAlign=bottom;" connectable="0" vertex="1" parent="1">
          <mxGeometry x="641" y="605" as="geometry" />
        </mxCell>
        <mxCell id="TXq7R9aLI3J5eNGoXP3h-36" value="" style="sketch=0;points=[[0,0,0],[0.25,0,0],[0.5,0,0],[0.75,0,0],[1,0,0],[0,1,0],[0.25,1,0],[0.5,1,0],[0.75,1,0],[1,1,0],[0,0.25,0],[0,0.5,0],[0,0.75,0],[1,0.25,0],[1,0.5,0],[1,0.75,0]];outlineConnect=0;fontColor=#232F3E;gradientColor=#F78E04;gradientDirection=north;fillColor=#D05C17;strokeColor=#ffffff;dashed=0;verticalLabelPosition=bottom;verticalAlign=top;align=center;html=1;fontSize=12;fontStyle=0;aspect=fixed;shape=mxgraph.aws4.resourceIcon;resIcon=mxgraph.aws4.lambda;" vertex="1" parent="1">
          <mxGeometry x="441" y="300" width="63" height="63" as="geometry" />
        </mxCell>
        <mxCell id="TXq7R9aLI3J5eNGoXP3h-38" value="" style="edgeStyle=elbowEdgeStyle;elbow=horizontal;endArrow=none;html=1;rounded=0;" edge="1" parent="1" target="TXq7R9aLI3J5eNGoXP3h-36">
          <mxGeometry width="50" height="50" relative="1" as="geometry">
            <mxPoint x="216" y="400.0000000000001" as="sourcePoint" />
            <mxPoint x="640" y="330.0000000000001" as="targetPoint" />
            <Array as="points">
              <mxPoint x="241" y="330" />
            </Array>
          </mxGeometry>
        </mxCell>
        <mxCell id="TXq7R9aLI3J5eNGoXP3h-39" value="" style="sketch=0;points=[[0,0,0],[0.25,0,0],[0.5,0,0],[0.75,0,0],[1,0,0],[0,1,0],[0.25,1,0],[0.5,1,0],[0.75,1,0],[1,1,0],[0,0.25,0],[0,0.5,0],[0,0.75,0],[1,0.25,0],[1,0.5,0],[1,0.75,0]];outlineConnect=0;fontColor=#232F3E;gradientColor=#945DF2;gradientDirection=north;fillColor=#5A30B5;strokeColor=#ffffff;dashed=0;verticalLabelPosition=bottom;verticalAlign=top;align=center;html=1;fontSize=12;fontStyle=0;aspect=fixed;shape=mxgraph.aws4.resourceIcon;resIcon=mxgraph.aws4.glue;" vertex="1" parent="1">
          <mxGeometry x="642" y="294" width="75" height="75" as="geometry" />
        </mxCell>
        <mxCell id="TXq7R9aLI3J5eNGoXP3h-40" value="LambdaFunction" style="edgeLabel;resizable=0;html=1;align=left;verticalAlign=bottom;" connectable="0" vertex="1" parent="1">
          <mxGeometry x="431.59" y="379.99999999999994" as="geometry" />
        </mxCell>
        <mxCell id="TXq7R9aLI3J5eNGoXP3h-43" value="" style="endArrow=classic;html=1;rounded=0;curved=1;exitX=0;exitY=0.5;exitDx=0;exitDy=0;exitPerimeter=0;" edge="1" parent="1" source="TXq7R9aLI3J5eNGoXP3h-26">
          <mxGeometry relative="1" as="geometry">
            <mxPoint x="705" y="335.15999999999997" as="sourcePoint" />
            <mxPoint x="720" y="336" as="targetPoint" />
          </mxGeometry>
        </mxCell>
        <mxCell id="TXq7R9aLI3J5eNGoXP3h-44" value="crawl" style="edgeLabel;resizable=0;html=1;align=center;verticalAlign=middle;" connectable="0" vertex="1" parent="TXq7R9aLI3J5eNGoXP3h-43">
          <mxGeometry relative="1" as="geometry" />
        </mxCell>
        <mxCell id="TXq7R9aLI3J5eNGoXP3h-45" value="crawl" style="edgeLabel;resizable=0;html=1;align=center;verticalAlign=middle;" connectable="0" vertex="1" parent="1">
          <mxGeometry x="779.9960415914601" y="336.2501671665206" as="geometry">
            <mxPoint x="-343" y="-128" as="offset" />
          </mxGeometry>
        </mxCell>
        <mxCell id="TXq7R9aLI3J5eNGoXP3h-46" value="" style="endArrow=classic;html=1;rounded=0;curved=1;" edge="1" parent="1">
          <mxGeometry width="50" height="50" relative="1" as="geometry">
            <mxPoint x="505" y="332.5" as="sourcePoint" />
            <mxPoint x="640" y="333" as="targetPoint" />
          </mxGeometry>
        </mxCell>
        <mxCell id="TXq7R9aLI3J5eNGoXP3h-47" value="c&lt;span style=&quot;color: rgba(0, 0, 0, 0); font-family: monospace; font-size: 0px; text-align: start;&quot;&gt;%3CmxGraphModel%3E%3Croot%3E%3CmxCell%20id%3D%220%22%2F%3E%3CmxCell%20id%3D%221%22%20parent%3D%220%22%2F%3E%3CmxCell%20id%3D%222%22%20value%3D%22crawl%22%20style%3D%22edgeLabel%3Bresizable%3D0%3Bhtml%3D1%3Balign%3Dcenter%3BverticalAlign%3Dmiddle%3B%22%20connectable%3D%220%22%20vertex%3D%221%22%20parent%3D%221%22%3E%3CmxGeometry%20x%3D%22792.5860415914601%22%20y%3D%22335.3301671665206%22%20as%3D%22geometry%22%2F%3E%3C%2FmxCell%3E%3C%2Froot%3E%3C%2FmxGraphModel%3E&lt;/span&gt;" style="sketch=0;points=[[0,0,0],[0.25,0,0],[0.5,0,0],[0.75,0,0],[1,0,0],[0,1,0],[0.25,1,0],[0.5,1,0],[0.75,1,0],[1,1,0],[0,0.25,0],[0,0.5,0],[0,0.75,0],[1,0.25,0],[1,0.5,0],[1,0.75,0]];outlineConnect=0;fontColor=#232F3E;gradientColor=#F78E04;gradientDirection=north;fillColor=#D05C17;strokeColor=#ffffff;dashed=0;verticalLabelPosition=bottom;verticalAlign=top;align=center;html=1;fontSize=12;fontStyle=0;aspect=fixed;shape=mxgraph.aws4.resourceIcon;resIcon=mxgraph.aws4.lambda;" vertex="1" parent="1">
          <mxGeometry x="570" y="412.99999999999994" width="63" height="63" as="geometry" />
        </mxCell>
        <mxCell id="TXq7R9aLI3J5eNGoXP3h-51" value="" style="edgeStyle=elbowEdgeStyle;elbow=horizontal;endArrow=classic;html=1;rounded=0;curved=1;entryX=0;entryY=0.5;entryDx=0;entryDy=0;entryPerimeter=0;" edge="1" parent="1" source="TXq7R9aLI3J5eNGoXP3h-36" target="TXq7R9aLI3J5eNGoXP3h-47">
          <mxGeometry width="50" height="50" relative="1" as="geometry">
            <mxPoint x="441" y="417" as="sourcePoint" />
            <mxPoint x="491" y="367" as="targetPoint" />
          </mxGeometry>
        </mxCell>
        <mxCell id="TXq7R9aLI3J5eNGoXP3h-52" value="" style="sketch=0;points=[[0,0,0],[0.25,0,0],[0.5,0,0],[0.75,0,0],[1,0,0],[0,1,0],[0.25,1,0],[0.5,1,0],[0.75,1,0],[1,1,0],[0,0.25,0],[0,0.5,0],[0,0.75,0],[1,0.25,0],[1,0.5,0],[1,0.75,0]];outlineConnect=0;fontColor=#232F3E;gradientColor=#945DF2;gradientDirection=north;fillColor=#5A30B5;strokeColor=#ffffff;dashed=0;verticalLabelPosition=bottom;verticalAlign=top;align=center;html=1;fontSize=12;fontStyle=0;aspect=fixed;shape=mxgraph.aws4.resourceIcon;resIcon=mxgraph.aws4.glue;" vertex="1" parent="1">
          <mxGeometry x="750" y="407" width="75" height="75" as="geometry" />
        </mxCell>
        <mxCell id="TXq7R9aLI3J5eNGoXP3h-53" value="" style="sketch=0;points=[[0,0,0],[0.25,0,0],[0.5,0,0],[0.75,0,0],[1,0,0],[0,1,0],[0.25,1,0],[0.5,1,0],[0.75,1,0],[1,1,0],[0,0.25,0],[0,0.5,0],[0,0.75,0],[1,0.25,0],[1,0.5,0],[1,0.75,0]];outlineConnect=0;fontColor=#232F3E;gradientColor=#945DF2;gradientDirection=north;fillColor=#5A30B5;strokeColor=#ffffff;dashed=0;verticalLabelPosition=bottom;verticalAlign=top;align=center;html=1;fontSize=12;fontStyle=0;aspect=fixed;shape=mxgraph.aws4.resourceIcon;resIcon=mxgraph.aws4.redshift;" vertex="1" parent="1">
          <mxGeometry x="1040" y="405.5" width="78" height="78" as="geometry" />
        </mxCell>
        <mxCell id="TXq7R9aLI3J5eNGoXP3h-58" value="" style="endArrow=classic;html=1;rounded=0;curved=1;exitX=1;exitY=0.5;exitDx=0;exitDy=0;exitPerimeter=0;" edge="1" parent="1" source="TXq7R9aLI3J5eNGoXP3h-47" target="TXq7R9aLI3J5eNGoXP3h-52">
          <mxGeometry relative="1" as="geometry">
            <mxPoint x="640" y="444" as="sourcePoint" />
            <mxPoint x="720" y="444.15999999999997" as="targetPoint" />
          </mxGeometry>
        </mxCell>
        <mxCell id="TXq7R9aLI3J5eNGoXP3h-62" value="" style="endArrow=classic;html=1;rounded=0;curved=1;exitX=1;exitY=0.5;exitDx=0;exitDy=0;exitPerimeter=0;" edge="1" parent="1" source="TXq7R9aLI3J5eNGoXP3h-52">
          <mxGeometry relative="1" as="geometry">
            <mxPoint x="818" y="445" as="sourcePoint" />
            <mxPoint x="1040" y="445" as="targetPoint" />
          </mxGeometry>
        </mxCell>
        <mxCell id="TXq7R9aLI3J5eNGoXP3h-63" value="Write from S3 to Redshift" style="edgeLabel;resizable=0;html=1;align=center;verticalAlign=middle;" connectable="0" vertex="1" parent="TXq7R9aLI3J5eNGoXP3h-62">
          <mxGeometry relative="1" as="geometry">
            <mxPoint x="3" as="offset" />
          </mxGeometry>
        </mxCell>
        <mxCell id="TXq7R9aLI3J5eNGoXP3h-64" value="crawl trigger" style="edgeLabel;resizable=0;html=1;align=center;verticalAlign=middle;" connectable="0" vertex="1" parent="1">
          <mxGeometry x="570.0000976560711" y="331.4950001525875" as="geometry" />
        </mxCell>
        <mxCell id="TXq7R9aLI3J5eNGoXP3h-65" value="" style="edgeStyle=elbowEdgeStyle;elbow=vertical;endArrow=classic;html=1;rounded=0;curved=1;entryX=0.5;entryY=0;entryDx=0;entryDy=0;entryPerimeter=0;" edge="1" parent="1" source="TXq7R9aLI3J5eNGoXP3h-39" target="TXq7R9aLI3J5eNGoXP3h-1">
          <mxGeometry width="50" height="50" relative="1" as="geometry">
            <mxPoint x="300" y="220" as="sourcePoint" />
            <mxPoint x="390" y="220" as="targetPoint" />
            <Array as="points">
              <mxPoint x="440" y="220" />
              <mxPoint x="500" y="210" />
              <mxPoint x="440" y="210" />
            </Array>
          </mxGeometry>
        </mxCell>
        <mxCell id="TXq7R9aLI3J5eNGoXP3h-68" value="Trigger Glue ETL" style="edgeLabel;resizable=0;html=1;align=center;verticalAlign=middle;" connectable="0" vertex="1" parent="1">
          <mxGeometry x="686.0906896551724" y="444.5" as="geometry" />
        </mxCell>
        <mxCell id="TXq7R9aLI3J5eNGoXP3h-69" value="Glue Crawler&amp;nbsp;" style="edgeLabel;resizable=0;html=1;align=center;verticalAlign=middle;" connectable="0" vertex="1" parent="1">
          <mxGeometry x="686.0900976560712" y="379.9950001525875" as="geometry" />
        </mxCell>
        <mxCell id="TXq7R9aLI3J5eNGoXP3h-70" value="event- trigger (path:&amp;nbsp;s3://pbs-big-data-bucket/product_info)&amp;nbsp;" style="text;html=1;align=center;verticalAlign=middle;resizable=0;points=[];autosize=1;strokeColor=none;fillColor=none;fontSize=9;" vertex="1" parent="1">
          <mxGeometry x="193" y="540" width="260" height="20" as="geometry" />
        </mxCell>
        <mxCell id="TXq7R9aLI3J5eNGoXP3h-72" value="bha-uk-big-data" style="text;html=1;align=center;verticalAlign=middle;resizable=0;points=[];autosize=1;strokeColor=none;fillColor=none;fontSize=9;" vertex="1" parent="1">
          <mxGeometry x="131" y="440" width="90" height="20" as="geometry" />
        </mxCell>
      </root>
    </mxGraphModel>
  </diagram>
</mxfile>
